<svg xmlns="http://www.w3.org/2000/svg" viewBox="0 0 1200 400" preserveAspectRatio="xMidYMid slice" role="img" aria-label="Abstract Mayari moon motif">
  <defs>
    <linearGradient id="sky" x1="0" y1="0" x2="0" y2="1">
      <stop offset="0%" stop-color="#0B0E16"/>
      <stop offset="60%" stop-color="#0D1220"/>
      <stop offset="100%" stop-color="#10182B"/>
    </linearGradient>
    <radialGradient id="moon" cx="42%" cy="38%" r="60%">
      <stop offset="0%" stop-color="#F2F6FF"/>
      <stop offset="45%" stop-color="#CFDBF2"/>
      <stop offset="80%" stop-color="#8E9FC6"/>
      <stop offset="100%" stop-color="#5A6890"/>
    </radialGradient>
    <radialGradient id="halo" cx="50%" cy="50%" r="50%">
      <stop offset="0%" stop-color="#8FB3FF" stop-opacity="0.30"/>
      <stop offset="55%" stop-color="#4FE3C1" stop-opacity="0.10"/>
      <stop offset="100%" stop-color="#4FE3C1" stop-opacity="0"/>
    </radialGradient>
  </defs>
  <rect width="1200" height="400" fill="url(#sky)"/>
  <g>
  <circle cx="31" cy="17" r="0.60" fill="#9FE0FF" opacity="0.25"/>
  <circle cx="128" cy="70" r="1.05" fill="#EAF2FF" opacity="0.50"/>
  <circle cx="225" cy="123" r="1.50" fill="#EAF2FF" opacity="0.75"/>
  <circle cx="322" cy="176" r="1.95" fill="#EAF2FF" opacity="0.38"/>
  <circle cx="419" cy="229" r="0.60" fill="#EAF2FF" opacity="0.62"/>
  <circle cx="516" cy="282" r="1.05" fill="#9FE0FF" opacity="0.25"/>
  <circle cx="613" cy="47" r="1.50" fill="#EAF2FF" opacity="0.50"/>
  <circle cx="710" cy="100" r="1.95" fill="#EAF2FF" opacity="0.75"/>
  <circle cx="1098" cy="24" r="1.95" fill="#EAF2FF" opacity="0.50"/>
  <circle cx="1195" cy="77" r="0.60" fill="#EAF2FF" opacity="0.75"/>
  <circle cx="92" cy="130" r="1.05" fill="#EAF2FF" opacity="0.38"/>
  <circle cx="189" cy="183" r="1.50" fill="#EAF2FF" opacity="0.62"/>
  <circle cx="286" cy="236" r="1.95" fill="#9FE0FF" opacity="0.25"/>
  <circle cx="383" cy="1" r="0.60" fill="#EAF2FF" opacity="0.50"/>
  <circle cx="480" cy="54" r="1.05" fill="#EAF2FF" opacity="0.75"/>
  <circle cx="577" cy="107" r="1.50" fill="#EAF2FF" opacity="0.38"/>
  <circle cx="674" cy="160" r="1.95" fill="#EAF2FF" opacity="0.62"/>
  <circle cx="1062" cy="84" r="1.95" fill="#EAF2FF" opacity="0.38"/>
  <circle cx="1159" cy="137" r="0.60" fill="#EAF2FF" opacity="0.62"/>
  <circle cx="56" cy="190" r="1.05" fill="#9FE0FF" opacity="0.25"/>
  <circle cx="153" cy="243" r="1.50" fill="#EAF2FF" opacity="0.50"/>
  <circle cx="250" cy="8" r="1.95" fill="#EAF2FF" opacity="0.75"/>
  <circle cx="347" cy="61" r="0.60" fill="#EAF2FF" opacity="0.38"/>
  <circle cx="444" cy="114" r="1.05" fill="#EAF2FF" opacity="0.62"/>
  <circle cx="541" cy="167" r="1.50" fill="#9FE0FF" opacity="0.25"/>
  <circle cx="638" cy="220" r="1.95" fill="#EAF2FF" opacity="0.50"/>
  <circle cx="735" cy="273" r="0.60" fill="#EAF2FF" opacity="0.75"/>
  <circle cx="1123" cy="197" r="0.60" fill="#EAF2FF" opacity="0.50"/>
  <circle cx="20" cy="250" r="1.05" fill="#EAF2FF" opacity="0.75"/>
  <circle cx="117" cy="15" r="1.50" fill="#EAF2FF" opacity="0.38"/>
  <circle cx="214" cy="68" r="1.95" fill="#EAF2FF" opacity="0.62"/>
  <circle cx="311" cy="121" r="0.60" fill="#9FE0FF" opacity="0.25"/>
  <circle cx="408" cy="174" r="1.05" fill="#EAF2FF" opacity="0.50"/>
  <circle cx="505" cy="227" r="1.50" fill="#EAF2FF" opacity="0.75"/>
  <circle cx="602" cy="280" r="1.95" fill="#EAF2FF" opacity="0.38"/>
  <circle cx="699" cy="45" r="0.60" fill="#EAF2FF" opacity="0.62"/>
  <circle cx="1087" cy="257" r="0.60" fill="#EAF2FF" opacity="0.38"/>
  <circle cx="1184" cy="22" r="1.05" fill="#EAF2FF" opacity="0.62"/>
  <circle cx="81" cy="75" r="1.50" fill="#9FE0FF" opacity="0.25"/>
  <circle cx="178" cy="128" r="1.95" fill="#EAF2FF" opacity="0.50"/>
  <circle cx="275" cy="181" r="0.60" fill="#EAF2FF" opacity="0.75"/>
  <circle cx="372" cy="234" r="1.05" fill="#EAF2FF" opacity="0.38"/>
  <circle cx="469" cy="287" r="1.50" fill="#EAF2FF" opacity="0.62"/>
  <circle cx="566" cy="52" r="1.95" fill="#9FE0FF" opacity="0.25"/>
  <circle cx="663" cy="105" r="0.60" fill="#EAF2FF" opacity="0.50"/>
  </g>
  <circle cx="888" cy="160" r="285" fill="url(#halo)"/>
  <circle cx="888" cy="160" r="150" fill="url(#moon)"/>
  <circle cx="888" cy="160" r="150" fill="none" stroke="#EAF2FF" stroke-width="1" opacity="0.35"/>
  <circle cx="838" cy="123" r="18" fill="#7E8DB8" opacity="0.30"/><circle cx="925" cy="190" r="13" fill="#7E8DB8" opacity="0.25"/>
  <!-- horizon haze -->
  <rect x="0" y="304" width="1200" height="96" fill="#070910" opacity="0.6"/>
</svg>
